<svg height="512" viewBox="0 0 54 60" width="512" xmlns="http://www.w3.org/2000/svg"><g id="Page-1" fill="none" fill-rule="evenodd"><g id="080---Boot-Prints" fill-rule="nonzero"><path id="Shape" d="m53 17.06c0 6.84-1.78 13.88-5.49 17.48-.306402.2852988-.7597776.3454814-1.13.15l-3.61-1.8c3.4963185-4.4186567 5.3454587-9.9165784 5.23-15.55 0-6.75-5.08-10.34-8.75-10.34-1.96 0-5.25 1.34-5.25 10.34-.1154587 5.6334216 1.7336815 11.1313433 5.23 15.55l-3.61 1.8c-.3702224.1954814-.823598.1352988-1.13-.15-3.71-3.6-5.49-10.64-5.49-17.48 0-9.91 3.37-16.06 10-16.06s14 6.15 14 16.06z" fill="#a0522d"/><path id="Shape" d="m39 1c-.4899917.00312366-.9790483.04323767-1.463.12 6.182.859 12.463 6.791 12.463 15.94 0 6.521-1.622 13.217-4.988 16.948l1.368.682c.3702224.1954814.823598.1352988 1.13-.15 3.71-3.6 5.49-10.64 5.49-17.48 0-9.91-7.37-16.06-14-16.06z" fill="#783e22"/><path id="Shape" d="m48 17.34c.1154587 5.6334216-1.7336815 11.1313433-5.23 15.55l-1.77-.89-1.77.89c-3.4963185-4.4186567-5.3454587-9.9165784-5.23-15.55 0-9 3.29-10.34 5.25-10.34 3.67 0 8.75 3.59 8.75 10.34z" fill="#91562d"/><path id="Shape" d="m39.25 7c-.456611.00055479-.9097801.07901392-1.34.232 3.372.88 7.09 4.333 7.09 10.108.1249877 5.4559693-1.6132335 10.791617-4.928 15.127l.928-.467 1.77.89c3.4963185-4.4186567 5.3454587-9.9165784 5.23-15.55 0-6.75-5.08-10.34-8.75-10.34z" fill="#6d4122"/><path id="Shape" d="m41 59c-4.4091162-.0032811-7.9856823-3.5709058-8-7.98.0006414-.4692073.0407831-.9375277.12-1.4l1.23-6.97c.1715923-.9538298 1.0008599-1.648394 1.97-1.65h2.44c.0776758-.0005314.1550594.0095621.23.03l-1.93 9.65c-.2062997 1.0833347.1211865 2.1997651.88 3 .7948251.8424298 1.9017967 1.3199169 3.06 1.3199169s2.2651749-.4774871 3.06-1.3199169c.7588135-.8002349 1.0862997-1.9166653.88-3l-1.93-9.65c.0749406-.0204379.1523242-.0305314.23-.03h2.44c.9691401.001606 1.7984077.6961702 1.97 1.65l1.23 6.97c.4076346 2.3276751-.2346774 4.7164825-1.7546945 6.525843-1.5200171 1.8093604-3.7622064 2.8541345-6.1253055 2.854157z" fill="#a0522d"/><path id="Shape" d="m48.88 49.62-1.23-6.97c-.1715923-.9538298-1.0008599-1.648394-1.97-1.65h-2.44c-.0770136-.0004618-.1537272.0096321-.228.03.8334138.1397267 1.4890731.7881809 1.638 1.62l1.23 6.97c.7493049 4.3095018-2.1015258 8.4218251-6.4 9.232 2.584646.5058848 5.2525501-.2947549 7.1315645-2.1401869 1.8790145-1.845432 2.7276316-4.4984652 2.2684355-7.0918131z" fill="#783e22"/><path id="Shape" d="m44.06 53.68c-.7948251.8424298-1.9017967 1.3199169-3.06 1.3199169s-2.2651749-.4774871-3.06-1.3199169c-.7588135-.8002349-1.0862997-1.9166653-.88-3l1.93-9.65c.0754005.0205965.1489814.0473532.22.08l1.34.67c.2836743.1399671.6163257.1399671.9 0l1.34-.67c.0710186-.0326468.1445995-.0594035.22-.08l1.93 9.65c.2062997 1.0833347-.1211865 2.1997651-.88 3z" fill="#91562d"/><path id="Shape" d="m44.94 50.68-1.93-9.65c-.537272.2123597-1.0586111.4630035-1.56.75-.2836743.1399671-.6163257.1399671-.9 0l-.433-.217 1.823 9.117c.2878971 1.7665141-.7443712 3.4820256-2.44 4.055 1.593249.6063456 3.3949625.1895018 4.56-1.055.7588135-.8002349 1.0862997-1.9166653.88-3z" fill="#6d4122"/><path id="Shape" d="m25 17.06c0 6.84-1.78 13.88-5.49 17.48-.306402.2852988-.7597776.3454814-1.13.15l-3.61-1.8c3.4963185-4.4186567 5.3454587-9.9165784 5.23-15.55 0-9-3.29-10.34-5.25-10.34-3.67 0-8.75 3.59-8.75 10.34-.1154587 5.6334216 1.73368155 11.1313433 5.23 15.55l-3.61 1.8c-.37011014.1961079-.82386981.1358743-1.13-.15-3.71-3.6-5.49-10.64-5.49-17.48 0-9.91 7.37-16.06 14-16.06s10 6.15 10 16.06z" fill="#a0522d"/><path id="Shape" d="m15 1c-.5144722.00486037-1.0280074.04495421-1.537.12 5.658.859 8.537 6.791 8.537 15.94 0 6.521-1.622 13.217-4.988 16.948l1.368.682c.3702224.1954814.823598.1352988 1.13-.15 3.71-3.6 5.49-10.64 5.49-17.48 0-9.91-3.37-16.06-10-16.06z" fill="#783e22"/><path id="Shape" d="m20 17.34c.1154587 5.6334216-1.7336815 11.1313433-5.23 15.55l-1.77-.89-1.77.89c-3.49631845-4.4186567-5.3454587-9.9165784-5.23-15.55 0-6.75 5.08-10.34 8.75-10.34 1.96 0 5.25 1.34 5.25 10.34z" fill="#91562d"/><path id="Shape" d="m14.75 7c-.5608939.00713907-1.1186405.0850892-1.66.232 1.836.651 3.91 2.961 3.91 10.108.1249877 5.4559693-1.6132335 10.791617-4.928 15.127l.928-.467 1.77.89c3.4963185-4.4186567 5.3454587-9.9165784 5.23-15.55 0-9-3.29-10.34-5.25-10.34z" fill="#6d4122"/><path id="Shape" d="m21 51.02c-.0074422 3.0216083-1.7167048 5.7812167-4.4186353 7.1338968-2.7019306 1.35268-5.9354659 1.0676076-8.3590511-.7369441-2.42358516-1.8045517-3.62365448-4.8206503-3.1023136-7.7969527l1.23-6.97c.17159229-.9538298 1.00085987-1.648394 1.97-1.65h2.44c.0776758-.0005314.1550594.0095621.23.03l-1.93 9.65c-.20629971 1.0833347.12118654 2.1997651.88 3 .7948251.8424298 1.9017967 1.3199169 3.06 1.3199169s2.2651749-.4774871 3.06-1.3199169c.7588135-.8002349 1.0862997-1.9166653.88-3l-1.93-9.65c.0749406-.0204379.1523242-.0305314.23-.03h2.44c.9691401.001606 1.7984077.6961702 1.97 1.65l1.23 6.97c.0792169.4624723.1193586.9307927.12 1.4z" fill="#a0522d"/><path id="Shape" d="m20.88 49.62-1.23-6.97c-.1715923-.9538298-1.0008599-1.648394-1.97-1.65h-2.44c-.0770136-.0004618-.1537272.0096321-.228.03.8334138.1397267 1.4890731.7881809 1.638 1.62l1.23 6.97c.0792169.4624723.1193586.9307927.12 1.4-.0156338 3.8230471-2.7301776 7.1024404-6.483 7.832 2.3375857.4575363 4.7571908-.1564875 6.5937463-1.6732968s2.8967802-3.7767733 2.8892537-6.1587032c-.0006414-.4692073-.0407831-.9375277-.12-1.4z" fill="#783e22"/><path id="Shape" d="m16.06 53.68c-.7948251.8424298-1.9017967 1.3199169-3.06 1.3199169s-2.2651749-.4774871-3.06-1.3199169c-.75881346-.8002349-1.08629971-1.9166653-.88-3l1.93-9.65c.0754005.0205965.1489814.0473532.22.08l1.34.67c.2836743.1399671.6163257.1399671.9 0l1.34-.67c.0710186-.0326468.1445995-.0594035.22-.08l1.93 9.65c.2062997 1.0833347-.1211865 2.1997651-.88 3z" fill="#91562d"/><path id="Shape" d="m16.94 50.68-1.93-9.65c-.537272.2123597-1.0586111.4630035-1.56.75-.2836743.1399671-.6163257.1399671-.9 0l-.433-.217 1.823 9.117c.2878971 1.7665141-.7443712 3.4820256-2.44 4.055 1.593249.6063456 3.3949625.1895018 4.56-1.055.7588135-.8002349 1.0862997-1.9166653.88-3z" fill="#6d4122"/><g fill="#000"><path id="Shape" d="m39 0c-6.99 0-11 6.217-11 17.056 0 7.874 2.166 14.678 5.794 18.2.6094047.5807653 1.5190796.713468 2.269.331l4.937-2.469 4.937 2.469c.281929.1410267.5927662.2146281.908.215.5074068.0019071.9955953-.1939422 1.361-.546 3.628-3.522 5.794-10.326 5.794-18.2 0-10.535-7.786-17.056-15-17.056zm12.523 13h-3.271c-.9055898-2.5510002-2.7292178-4.67304015-5.115-5.952l2.48-2.893c3.0070122 2.10454204 5.1146543 5.26100898 5.906 8.845zm-21.323 8h3.024c.2022876 1.7009714.5796207 3.376518 1.126 5h-3.24c-.4340749-1.6402037-.7383482-3.3120353-.91-5zm-.2-3.944c0-.641.018-1.336.057-2.056h3.036c-.055.728-.093 1.492-.093 2.34 0 .571.017 1.123.045 1.66h-2.991c-.032-.641-.054-1.288-.054-1.944zm5.455-9.315c-1.1890761 1.51878762-1.9277816 3.3409508-2.132 5.259h-3.1c.2007617-2.9005352 1.1635182-5.69670293 2.791-8.106zm10.422 4.776-4.977-1.317c-.129-1.063-.274-2.089-.435-3.061 2.3529676.60655534 4.3272797 2.2036615 5.412 4.378zm1.123 4.823c0 .473-.012.931-.034 1.378l-5.5-1.494c-.093-1.3-.2-2.608-.33-3.889l5.571 1.465c.1949596.8325923.2932754 1.6848865.293 2.54zm-7.538-.06-4.43 1.387c-.019-.432-.032-.867-.032-1.327 0-.937.041-1.8.113-2.6l4.014-1.381c.13 1.284.24 2.605.335 3.921zm.134 2.054c.1 1.745.182 3.44.239 5l-3.463 1.366c-.5734524-1.6152374-.9638939-3.2897082-1.164-4.992zm2.01 0 5.182 1.407c-.2024251 1.6961168-.5931681 3.3644049-1.165 4.974l-3.781-1.415c-.056-1.544-.133-3.229-.236-4.965zm-3.169-11.218c.173 1 .327 2.081.464 3.2l-3.468 1.193c.534-2.493 1.556-3.994 3.004-4.393zm1.468 18.337c.064 2.277.085 4.052.092 4.934l-.448.226c-.9263682-1.2793059-1.7350026-2.63986-2.416-4.065zm2.095 4.928c-.006-.892-.025-2.66-.087-4.92l2.948 1.1c-.6784199 1.4175827-1.4833492 2.7710687-2.405 4.044zm6.774-10.381h3.026c-.1713318 1.6879366-.4752707 3.3597672-.909 5h-3.243c.5463793-1.623482.9237124-3.2990286 1.126-5zm.181-2c.028-.537.045-1.089.045-1.66-.0012963-.7846912-.0719041-1.5677343-.211-2.34h3.084c.0809571.6824003.1233578 1.3688239.127 2.056 0 .656-.022 1.3-.054 1.944zm-5.1-15.86-2.688 3.134c-.6245138-.17360318-1.2688591-.26570053-1.917-.274-.767591-.00137256-1.5252984.17308829-2.215.51l-2.6-3.043c1.3127899-.98961629 2.9214699-1.50657873 4.565-1.467 1.6822975.01717376 3.339941.40648435 4.854 1.14zm-8.668 30.68c-1.5730142-1.6567581-2.75375-3.6457255-3.455-5.82h3.4c.722046 1.5893759 1.5968231 3.1048302 2.612 4.525zm11.644-.02-2.569-1.285c1.0113736-1.4174487 1.8831085-2.9295053 2.603-4.515h3.405c-.6964839 2.1669432-1.8718765 4.1492861-3.439 5.8z"/><path id="Shape" d="m48.631 42.479c-.2528072-1.4335835-1.4982964-2.4787994-2.954-2.479h-2.441c-.3102833.0004577-.6162564.0726728-.894.211l-1.342.671-1.342-.671c-.2777436-.1383272-.5837167-.2105423-.894-.211h-2.441c-1.4557036.0002006-2.7011928 1.0454165-2.954 2.479l-1.229 6.963c-.6319961 3.5411425.9052472 7.1185045 3.9092071 9.097225 3.0039598 1.9787204 6.897626 1.9787204 9.9015858 0 3.0039599-1.9787205 4.5412032-5.5560825 3.9092071-9.097225zm-5.308 10.532c-.6073232.6320108-1.4459846.9892216-2.3225.9892216s-1.7151768-.3572108-2.3225-.9892216c-.4526356-.4745878-.6967504-1.1104384-.678-1.766l2.488.654c.3341348.089312.6858652.089312 1.02 0l2.492-.654c.0192422.6554574-.224537 1.2913719-.677 1.766zm.312-3.738-2.635.693-2.635-.693.588-2.942 1.372.489c.4353342.1566644.9116658.1566644 1.347 0l1.374-.49zm-7.255-.273h-2.132l.53-3h2.2zm9.24 0-.6-3h2.2l.53 3zm1.042-6.174.207 1.174h-2.249l-.4-2h1.457c.4852548-.0001234.9005657.3481474.985.826zm-4.762-.155.381-.191.374 1.869-1.655.589-1.65-.589.374-1.869.384.192c.5647687.2792929 1.2275434.278923 1.792-.001zm-5.577-.671h1.457l-.4 2h-2.249l.207-1.174c.0844343-.4778526.4997452-.8261234.985-.826zm-2.312 9h2.011c-.088091 1.2334048.3383355 2.4482496 1.178 3.356l.016.016-1.36 1.36c-.071-.078-.148-.15-.216-.231-1.0572361-1.2610327-1.6342772-2.855423-1.629-4.501zm6.989 7c-1.2644351.0006518-2.5052926-.3422258-3.59-.992l1.458-1.458c1.3607863.6000545 2.9112137.6000545 4.272 0l1.458 1.458c-1.087455.6501943-2.3309917.9930482-3.598.992zm5.366-2.5c-.068.081-.145.153-.216.231l-1.359-1.359.016-.017c.8366063-.9087577 1.2600795-2.1230761 1.17-3.355h2.012c.0056012 1.6449827-.5707069 3.238951-1.627 4.5z"/><path id="Shape" d="m15 0c-7.214 0-15 6.521-15 17.056 0 7.874 2.166 14.678 5.794 18.2.6094047.5807653 1.51907955.713468 2.269.331l4.937-2.469 4.937 2.469c.281929.1410267.5927662.2146281.908.215.5074068.0019071.9955953-.1939422 1.361-.546 3.628-3.522 5.794-10.326 5.794-18.2 0-10.839-4.01-17.056-11-17.056zm-12.8 21h3.026c.20228756 1.7009714.57962066 3.376518 1.126 5h-3.24c-.4347497-1.6401492-.73969192-3.3119815-.912-5zm-.2-3.944c.00364217-.6871761.04604285-1.3735997.127-2.056h3.084c-.13909595.7722657-.20970368 1.5553088-.211 2.34 0 .571.017 1.123.045 1.66h-2.991c-.032-.641-.054-1.288-.054-1.944zm11.531-8.913c-.161.972-.306 2-.435 3.061l-4.973 1.313c1.08474297-2.1719153 3.0572937-3.76731783 5.408-4.374zm5.036 4.368-3.467-1.193c.137-1.121.291-2.2.464-3.2 1.447.397 2.469 1.898 3.003 4.393zm-11.567 4.829c.00014694-.8537692.09845921-1.7046904.293-2.536l5.568-1.469c-.128 1.281-.237 2.589-.33 3.889l-5.5 1.494c-.019-.447-.031-.905-.031-1.378zm12 0c0 .455-.013.895-.032 1.327l-4.43-1.387c.095-1.316.2-2.637.335-3.925l4.014 1.381c.072.804.113 1.664.113 2.604zm-6.606 2c-.1 1.736-.18 3.421-.236 4.965l-3.781 1.416c-.57183188-1.6095951-.96257487-3.2778832-1.165-4.974zm2.01 0 4.388 1.373c-.2004736 1.7005987-.5909105 3.3733724-1.164 4.987l-3.463-1.37c.057-1.556.135-3.251.235-4.996zm-2.315 7.127c-.062 2.262-.081 4.033-.087 4.923l-.454.23c-.9223644-1.2746015-1.72795745-2.6297515-2.407-4.049zm1.911 4.917c.007-.883.028-2.657.092-4.931l2.772 1.095c-.6802482 1.4236504-1.4878718 2.7828545-2.413 4.061zm6.774-10.384h3.026c-.1713318 1.6879366-.4752707 3.3597672-.909 5h-3.243c.5463793-1.623482.9237124-3.2990286 1.126-5zm.181-2c.028-.537.045-1.089.045-1.66 0-.848-.038-1.612-.093-2.34h3.036c.039.72.057 1.415.057 2.056s-.022 1.3-.054 1.944zm-.278-6c-.2042184-1.9180492-.9429239-3.74021238-2.132-5.259l2.437-2.847c1.6274818 2.40929707 2.5902383 5.2054648 2.791 8.106zm-1.107-9.533-2.605 3.043c-.6897016-.33691171-1.447409-.51137256-2.215-.51-.6481409.00829947-1.2924862.10039682-1.917.274l-2.687-3.134c1.514059-.73351565 3.1717025-1.12282624 4.854-1.14 1.6452314-.0407134 3.2558566.47630788 4.57 1.467zm-11.187.688 2.48 2.893c-2.38578219 1.27895985-4.20941025 3.4009998-5.115 5.952h-3.271c.79134575-3.58399102 2.89898777-6.74045796 5.906-8.845zm-1.2 29.665c-1.57157191-1.6571528-2.75092272-3.6460898-3.451-5.82h3.4c.72174481 1.5893274 1.59618532 3.1047787 2.611 4.525zm11.648-.02-2.569-1.285c1.0113736-1.4174487 1.8831085-2.9295053 2.603-4.515h3.405c-.6964839 2.1669432-1.8718765 4.1492861-3.439 5.8z"/><path id="Shape" d="m20.631 42.479c-.2528072-1.4335835-1.4982964-2.4787994-2.954-2.479h-2.441c-.3102833.0004577-.6162564.0726728-.894.211l-1.342.671-1.342-.671c-.2777436-.1383272-.5837167-.2105423-.894-.211h-2.441c-1.45608108-.0002847-2.70212728 1.0450448-2.955 2.479l-1.228 6.963c-.63199615 3.5411425.90524723 7.1185045 3.90920708 9.097225 3.00395982 1.9787204 6.89762602 1.9787204 9.90158582 0 3.0039599-1.9787205 4.5412032-5.5560825 3.9092071-9.097225zm-5.308 10.532c-.6073232.6320108-1.4459846.9892216-2.3225.9892216s-1.7151768-.3572108-2.3225-.9892216c-.4526356-.4745878-.69675035-1.1104384-.678-1.766l2.488.654c.3341348.089312.6858652.089312 1.02 0l2.492-.654c.0190183.6554193-.224729 1.2912505-.677 1.766zm.312-3.738-2.635.693-2.635-.693.588-2.942 1.372.489c.4353342.1566644.9116658.1566644 1.347 0l1.375-.49zm-7.255-.273h-2.132l.53-3h2.2zm9.24 0-.6-3h2.2l.53 3zm1.042-6.174.207 1.174h-2.249l-.4-2h1.457c.4852548-.0001234.9005657.3481474.985.826zm-4.762-.155.381-.191.374 1.869-1.655.589-1.65-.589.374-1.869.384.192c.5647687.2792929 1.2275434.278923 1.792-.001zm-6.556.154c.08446149-.4752327.49632757-.8223109.979-.825h1.457l-.4 2h-2.249l.207-1.174zm-1.333 8.175h2.011c-.08809096 1.2334048.3383355 2.4482496 1.178 3.356l.016.016-1.36 1.36c-.071-.078-.148-.15-.216-.231-1.05723612-1.2610327-1.63427719-2.855423-1.629-4.501zm6.989 7c-1.2644351.0006518-2.5052926-.3422258-3.59-.992l1.458-1.458c1.3607863.6000545 2.9112137.6000545 4.272 0l1.458 1.458c-1.087455.6501943-2.3309917.9930482-3.598.992zm5.366-2.5c-.068.081-.145.153-.216.231l-1.359-1.359.016-.017c.8366063-.9087577 1.2600795-2.1230761 1.17-3.355h2.012c.0056012 1.6449827-.5707069 3.238951-1.627 4.5z"/></g></g></g></svg>