<svg id="Capa_1" enable-background="new 0 0 502.056 502.056" height="512" viewBox="0 0 502.056 502.056" width="512" xmlns="http://www.w3.org/2000/svg"><g><g><path d="m216.496 117.077c-.957 0-1.93-.185-2.869-.574-3.827-1.587-5.643-5.974-4.056-9.8l25.879-62.423c1.585-3.827 5.975-5.644 9.8-4.056 3.827 1.586 5.643 5.974 4.056 9.8l-25.879 62.423c-1.196 2.888-3.989 4.63-6.931 4.63z" fill="#e3e0e4"/></g><g><path d="m284.558 117.077c-2.942 0-5.734-1.742-6.931-4.63l-25.838-62.323c-1.587-3.826.229-8.214 4.056-9.8 3.825-1.586 8.215.229 9.8 4.056l25.838 62.323c1.587 3.826-.229 8.214-4.056 9.8-.938.39-1.912.574-2.869.574z" fill="#e3e0e4"/></g><g><path d="m164.288 190.532h173.479v220.464h-173.479z" fill="#f5de46"/></g><g><path d="m195.036 190.532h142.731v220.464h-142.731z" fill="#f8e883"/></g><g><path d="m307.767 190.533h30v220.464h-30z" fill="#f5de46"/></g><g><path d="m251.266 367.207h-.477c-12.798 0-23.173-10.375-23.173-23.173v-86.539c0-12.798 10.375-23.173 23.173-23.173h.477c12.798 0 23.173 10.375 23.173 23.173v86.539c0 12.798-10.375 23.173-23.173 23.173z" fill="#fcf5c7"/></g><g><path d="m311.988 142.635-61.134-10-60.809 10c-21.427 8.805-37.981 26.258-45.729 47.822-1.979 5.507 2.049 11.319 7.901 11.32l197.621.009c5.852 0 9.88-5.813 7.901-11.32-7.75-21.572-24.313-39.03-45.751-47.831z" fill="#766d78"/></g><g><path d="m295.58 109.575h-89.452c-8.833 0-15.993 7.16-15.993 15.993v17.066h121.439v-17.066c0-8.832-7.161-15.993-15.994-15.993z" fill="#a29aa5"/></g><g><path d="m311.988 458.894-62.108 20-59.835-20c-21.427-8.805-37.981-26.258-45.729-47.822-1.979-5.507 2.049-11.319 7.901-11.32l197.621-.009c5.852 0 9.88 5.813 7.901 11.32-7.75 21.572-24.313 39.03-45.751 47.831z" fill="#766d78"/></g><g><path d="m268.851 502.056h-35.994c-23.595 0-42.723-19.128-42.723-42.723v-.44h121.439v.44c.001 23.596-19.127 42.723-42.722 42.723z" fill="#a29aa5"/></g><g><path d="m311.988 142.635-11.175-10-18.825 10c25.078 10.296 43.484 32.438 48.918 59.15h18.933c5.852 0 9.88-5.813 7.901-11.32-7.751-21.57-24.314-39.029-45.752-47.83z" fill="#655e67"/></g><g><path d="m295.58 109.575h-30c8.833 0 15.993 7.161 15.993 15.994v17.066h30v-17.066c.001-8.833-7.16-15.994-15.993-15.994z" fill="#8c818f"/></g><g><path d="m330.906 399.743c-5.434 26.713-23.84 48.855-48.918 59.151l18.219 10 11.781-10c21.438-8.802 38.001-26.26 45.752-47.831 1.979-5.507-2.049-11.32-7.901-11.32z" fill="#655e67"/></g><g><path d="m281.574 458.894v.439c0 23.595-19.128 42.723-42.723 42.723h30c23.595 0 42.723-19.127 42.723-42.723v-.439z" fill="#8c818f"/></g><g><path d="m266.684 49.57h-31.314c-2.157 0-3.906-1.749-3.906-3.906v-30.251c.001-8.512 6.901-15.413 15.414-15.413h8.299c8.512 0 15.413 6.901 15.413 15.413v30.252c0 2.157-1.749 3.905-3.906 3.905z" fill="#c8c3ca"/></g></g></svg>